<svg xmlns="http://www.w3.org/2000/svg" width="14" height="14" viewBox="0 0 14 14">
	<path class="cls-2" d="M11.9 2.6C11 2.2 10 1.9 9 1.7c-.1.2-.3.5-.4.8-1.1-.2-2.1-.2-3.2 0-.1-.3-.2-.5-.4-.8-1 .2-2 .5-2.9.9C.3 5.3-.2 7.9 0 10.5c1.1.8 2.3 1.4 3.5 1.8.3-.4.5-.8.8-1.2-.4-.2-.8-.3-1.2-.6.1 0 .2-.1.3-.2 2.2 1.1 4.8 1.1 7.1 0 0 0 .2.2.3.2l-1.2.6c.2.4.5.8.8 1.2 1.3-.4 2.5-1 3.5-1.8.3-3-.5-5.6-2.1-7.9ZM4.7 8.9c-.7 0-1.3-.6-1.3-1.4S4 6.1 4.7 6.1 6 6.7 6 7.5s-.6 1.4-1.3 1.4Zm4.6 0C8.6 8.9 8 8.3 8 7.5s.6-1.4 1.3-1.4 1.3.6 1.3 1.4-.6 1.4-1.3 1.4Z" fill="#5865f2"/>
</svg>