<svg xmlns="http://www.w3.org/2000/svg" width="14" height="14" viewBox="0 0 14 14"><path d="M7,.17C3.13.17,0,3.31,0,7.17c0,3.1,2,5.71,4.79,6.64.35.06.48-.15.48-.33,0-.17,0-.72,0-1.3-1.76.32-2.21-.43-2.35-.82-.08-.2-.42-.82-.72-.99-.25-.13-.59-.46,0-.46.55,0,.95.51,1.08.72.63,1.06,1.64.76,2.04.58.06-.46.24-.76.45-.94-1.56-.18-3.19-.78-3.19-3.46,0-.76.27-1.39.72-1.88-.07-.18-.31-.89.07-1.86,0,0,.59-.18,1.93.72.56-.16,1.15-.24,1.75-.24s1.19.08,1.75.24c1.34-.91,1.92-.72,1.92-.72.38.96.14,1.68.07,1.86.45.49.72,1.11.72,1.88,0,2.69-1.64,3.28-3.19,3.46.25.22.47.64.47,1.29,0,.94,0,1.69,0,1.92,0,.18.13.4.48.33,2.76-.93,4.77-3.55,4.77-6.64C14,3.31,10.87.17,7,.17Z" fill="#000000"/></svg>