<svg xmlns="http://www.w3.org/2000/svg" width="14" height="14" viewBox="0 0 14 14">
  <clipPath id="mask">
      <path d="M7-9.594A3.585,3.585,0,0,0,3.412-6,3.585,3.585,0,0,0,7-2.413,3.585,3.585,0,0,0,10.594-6,3.585,3.585,0,0,0,7-9.594ZM7-3.669A2.339,2.339,0,0,1,4.669-6,2.337,2.337,0,0,1,7-8.337,2.337,2.337,0,0,1,9.337-6,2.339,2.339,0,0,1,7-3.669Zm4.575-6.072a.838.838,0,0,0-.837-.837.838.838,0,0,0-.837.837.836.836,0,0,0,.837.838A.836.836,0,0,0,11.578-9.741Zm2.378.85a4.145,4.145,0,0,0-1.131-2.934,4.172,4.172,0,0,0-2.934-1.131c-1.156-.066-4.622-.066-5.778,0a4.166,4.166,0,0,0-2.934,1.128A4.158,4.158,0,0,0,.047-8.894c-.066,1.156-.066,4.622,0,5.778A4.145,4.145,0,0,0,1.178-.181,4.177,4.177,0,0,0,4.112.95c1.156.066,4.622.066,5.778,0A4.145,4.145,0,0,0,12.825-.181a4.172,4.172,0,0,0,1.131-2.934c.066-1.156.066-4.619,0-5.775ZM12.462-1.875A2.363,2.363,0,0,1,11.131-.544,15.434,15.434,0,0,1,7-.262,15.555,15.555,0,0,1,2.875-.544,2.363,2.363,0,0,1,1.544-1.875,15.434,15.434,0,0,1,1.262-6a15.555,15.555,0,0,1,.281-4.128,2.363,2.363,0,0,1,1.331-1.331A15.434,15.434,0,0,1,7-11.744a15.555,15.555,0,0,1,4.128.281,2.363,2.363,0,0,1,1.331,1.331A15.434,15.434,0,0,1,12.744-6,15.425,15.425,0,0,1,12.462-1.875Z" transform="translate(13 26)" fill="#0a406a"></path>
    </clipPath>
    <radialGradient id="gradient" cx="0.079" cy="0.917" r="1.299" gradientTransform="translate(-0.624 0.323) rotate(-44.876)" gradientUnits="objectBoundingBox">
      <stop offset="0" stop-color="#fdc930"></stop>
      <stop offset="0.456" stop-color="#ff0062"></stop>
      <stop offset="1" stop-color="#4e00ff"></stop>
    </radialGradient>
  <g transform="translate(-12.998 -12.995)">
    <g clip-path="url(#mask)">
      <rect width="16" height="16" transform="translate(12 12)" fill="url(#gradient)"></rect>
    </g>
  </g>
</svg>
