<svg xmlns="http://www.w3.org/2000/svg" width="14" height="14" viewBox="0 0 14 14">
	<path d="M7 .33c-3.86 0-7 2.55-7 5.68 0 2.81 2.49 5.16 5.85 5.61.23.05.54.15.62.35.07.18.05.45.02.63 0 0-.08.49-.1.6-.03.18-.14.69.61.38.75-.31 4.03-2.37 5.5-4.06.51-.56.88-1.12 1.13-1.7.25-.58.37-1.17.37-1.8C14 2.88 10.86.33 7 .33ZM4.53 7.69c0 .07-.06.13-.13.13H2.43c-.04 0-.07-.01-.09-.04a.149.149 0 0 1-.04-.09V4.64c0-.07.06-.13.13-.13h.5c.07 0 .13.06.13.13v2.43H4.4c.07 0 .13.06.13.13v.5Zm1.18 0c0 .07-.06.13-.13.13h-.5c-.07 0-.13-.06-.13-.13V4.64c0-.07.06-.13.13-.13h.5c.07 0 .13.06.13.13v3.05Zm3.38-.01c0 .07-.06.13-.13.13H8.4s-.02-.03-.03-.04l-1.4-1.89v1.83c0 .07-.06.13-.13.13h-.5c-.07 0-.13-.06-.13-.13V4.66c0-.07.06-.13.13-.13h.56v.01l.01.01 1.4 1.89V4.63c0-.07.06-.13.13-.13h.5c.07 0 .13.06.13.13v3.05Zm2.71-2.55c0 .07-.06.13-.13.13h-1.34v.52h1.34c.07 0 .13.06.13.13v.5c0 .07-.06.13-.13.13h-1.34v.52h1.34c.07 0 .13.06.13.13v.5c0 .07-.05.13-.13.14H9.7c-.07 0-.13-.06-.13-.13V4.65s.01-.07.04-.09c.02-.02.06-.04.09-.04h1.97c.07 0 .13.06.13.13v.5Z" style="fill: #06c755"/>
</svg>