<svg xmlns="http://www.w3.org/2000/svg" width="10.769" height="14" viewBox="0 0 10.769 14">
<path d="M0,5.023A4.628,4.628,0,0,1,.316,3.311a4.382,4.382,0,0,1,.87-1.4A5.932,5.932,0,0,1,2.465.875,5.872,5.872,0,0,1,4.022.219,6.649,6.649,0,0,1,5.721,0,5.559,5.559,0,0,1,8.195.56a4.665,4.665,0,0,1,1.859,1.628A4.239,4.239,0,0,1,10.769,4.6a7.768,7.768,0,0,1-.16,1.582,6.363,6.363,0,0,1-.5,1.489,5.19,5.19,0,0,1-.842,1.258,3.644,3.644,0,0,1-1.22.867,3.844,3.844,0,0,1-1.59.324,2.61,2.61,0,0,1-1.136-.27,1.684,1.684,0,0,1-.807-.74q-.084.328-.236.946c-.1.413-.167.679-.2.8s-.088.319-.172.6a3.864,3.864,0,0,1-.219.6l-.269.526a5.958,5.958,0,0,1-.387.652q-.21.308-.522.728L2.389,14l-.075-.084q-.126-1.322-.126-1.582a9.543,9.543,0,0,1,.18-1.737q.182-.963.56-2.419T3.365,6.47A3.233,3.233,0,0,1,3.1,5.048a2.218,2.218,0,0,1,.438-1.312,1.314,1.314,0,0,1,1.11-.614.989.989,0,0,1,.8.34,1.3,1.3,0,0,1,.286.863,5.327,5.327,0,0,1-.371,1.607,5.33,5.33,0,0,0-.37,1.573,1.144,1.144,0,0,0,.379.879,1.3,1.3,0,0,0,.917.349,1.8,1.8,0,0,0,.858-.21,1.923,1.923,0,0,0,.66-.572,4.874,4.874,0,0,0,.472-.8,4.594,4.594,0,0,0,.319-.93,9.287,9.287,0,0,0,.169-.934,6.911,6.911,0,0,0,.054-.837A2.867,2.867,0,0,0,7.9,2.183a3.5,3.5,0,0,0-2.4-.811,3.885,3.885,0,0,0-2.81,1.089A3.678,3.678,0,0,0,1.556,5.225a2.441,2.441,0,0,0,.106.715,2.443,2.443,0,0,0,.227.547c.081.135.157.262.227.383a.635.635,0,0,1,.105.256,2.06,2.06,0,0,1-.126.615q-.126.378-.311.378a1.382,1.382,0,0,1-.143-.025,1.724,1.724,0,0,1-.762-.471,2.469,2.469,0,0,1-.513-.8,5.084,5.084,0,0,1-.273-.909A4.5,4.5,0,0,1,0,5.023" fill="#e60023"/>
</svg>
