<svg xmlns="http://www.w3.org/2000/svg" width="14" height="14" viewBox="0 0 14 14">
	<path d="M12.41,5.61c-.38.01-.74.17-1.01.42-1.19-.81-2.6-1.26-4.04-1.29l.68-3.28,2.25.47c.06.58.58,1,1.15.94.58-.07,1-.58.94-1.16-.07-.58-.58-1-1.16-.93-.33.03-.63.22-.79.51l-2.58-.51c-.18-.04-.35.07-.39.25l-.78,3.65c-1.46.02-2.88.47-4.1,1.29-.61-.58-1.58-.55-2.16.07-.58.62-.55,1.59.06,2.17.12.11.26.21.42.27-.01.16-.01.31,0,.47,0,2.35,2.74,4.27,6.12,4.27s6.13-1.92,6.13-4.27c0-.16,0-.31,0-.47.53-.26.86-.8.85-1.39-.03-.85-.74-1.51-1.59-1.48ZM3.49,8.14c0-.58.47-1.05,1.05-1.05s1.05.47,1.05,1.05-.47,1.05-1.05,1.05-1.05-.47-1.05-1.05ZM9.58,11.03c-.72.54-1.67.82-2.58.81h-.15c-.89,0-1.74-.28-2.45-.81-.1-.12-.08-.3.04-.4.1-.09.25-.09.36,0,.59.44,1.32.67,2.07.66h.12c.77.01,1.6-.22,2.19-.66.11-.09.26-.09.36,0,.12.1.14.28.04.4ZM9.41,9.23c-.58,0-1.05-.47-1.05-1.05s.47-1.05,1.05-1.05,1.05.47,1.05,1.05-.47,1.05-1.05,1.05Z" fill="#ff4500"/>
</svg>