<svg xmlns="http://www.w3.org/2000/svg" width="14" height="14" viewBox="0 0 14 14">
	<path d="M13.95,10.19c-.1-.27-.28-.41-.49-.52-.04-.02-.08-.04-.11-.06-.06-.03-.13-.06-.19-.1-.66-.35-1.17-.79-1.53-1.31-.12-.18-.2-.33-.26-.46-.03-.09-.03-.14,0-.18.02-.03.06-.07.08-.09.11-.08.23-.15.31-.2.14-.09.25-.16.32-.21.27-.19.46-.39.58-.61.17-.32.19-.68.06-1.02-.18-.47-.62-.76-1.16-.76-.11,0-.23.01-.34.04-.03,0-.06.01-.09.02,0-.32,0-.66-.03-1-.1-1.18-.51-1.79-.94-2.28-.18-.21-.49-.5-.96-.77-.65-.37-1.39-.56-2.2-.56s-1.54.19-2.19.56c-.47.27-.78.57-.96.77-.43.49-.84,1.11-.94,2.28-.03.33-.04.68-.03,1-.03,0-.06-.01-.09-.02-.11-.02-.23-.04-.34-.04-.54,0-.98.29-1.16.76-.13.34-.11.7.06,1.02.12.22.31.43.58.61.07.05.18.12.32.21.08.05.19.12.3.19.02.01.08.05.1.1.02.05.02.1-.01.19-.06.13-.14.28-.26.46-.35.51-.85.94-1.48,1.29-.34.18-.69.3-.84.7-.11.3-.04.65.24.94.09.1.21.19.36.27.35.19.64.29.87.35.04.01.14.04.18.08.1.09.09.23.23.43.08.12.18.21.26.26.29.2.61.21.96.23.31.01.66.03,1.07.16.17.05.34.16.54.28.48.3,1.14.7,2.25.7s1.77-.41,2.25-.7c.2-.12.37-.23.53-.28.4-.13.75-.15,1.07-.16.34-.01.67-.03.96-.23.09-.06.21-.17.3-.32.1-.17.1-.29.19-.37.04-.03.12-.06.17-.08.23-.06.53-.16.89-.35.16-.09.28-.18.38-.29h0c.26-.29.33-.63.22-.92ZM12.97,10.72c-.6.33-1,.3-1.31.49-.26.17-.11.53-.3.67-.23.16-.93-.01-1.82.28-.74.24-1.21.95-2.54.95s-1.79-.7-2.54-.95c-.9-.3-1.59-.12-1.82-.28-.19-.13-.04-.5-.3-.67-.31-.2-.71-.16-1.31-.49-.38-.21-.17-.34-.04-.4,2.17-1.05,2.51-2.67,2.53-2.79.02-.14.04-.26-.12-.41-.15-.14-.84-.57-1.03-.7-.32-.22-.45-.44-.35-.71.07-.19.25-.26.43-.26.06,0,.12,0,.17.02.35.08.68.25.88.3.03,0,.05,0,.07,0,.1,0,.14-.05.13-.17-.02-.38-.08-1.12-.02-1.81.08-.95.39-1.42.75-1.84.17-.2,1-1.07,2.56-1.07s2.39.87,2.56,1.07c.36.42.67.89.75,1.84.06.69,0,1.43-.02,1.81,0,.12.03.17.13.17.02,0,.05,0,.07,0,.19-.05.53-.22.88-.3.06-.01.11-.02.17-.02.18,0,.36.07.43.26.1.27-.04.49-.35.71-.19.13-.88.56-1.03.7-.16.15-.14.26-.12.41.01.12.36,1.74,2.53,2.79.12.06.34.19-.04.4Z" fill="#000000"/>
	<path d="M12.97,10.72c-.6.33-1,.3-1.31.49-.26.17-.11.53-.3.67-.23.16-.93-.01-1.82.28-.74.24-1.21.95-2.54.95s-1.79-.7-2.54-.95c-.9-.3-1.59-.12-1.82-.28-.19-.13-.04-.5-.3-.67-.31-.2-.71-.16-1.31-.49-.38-.21-.17-.34-.04-.4,2.17-1.05,2.51-2.67,2.53-2.79.02-.14.04-.26-.12-.41-.15-.14-.84-.57-1.03-.7-.32-.22-.45-.44-.35-.71.07-.19.25-.26.43-.26.06,0,.12,0,.17.02.35.08.68.25.88.3.03,0,.05,0,.07,0,.1,0,.14-.05.13-.17-.02-.38-.08-1.12-.02-1.81.08-.95.39-1.42.75-1.84.17-.2,1-1.07,2.56-1.07s2.39.87,2.56,1.07c.36.42.67.89.75,1.84.06.69,0,1.43-.02,1.81,0,.12.03.17.13.17.02,0,.05,0,.07,0,.19-.05.53-.22.88-.3.06-.01.11-.02.17-.02.18,0,.36.07.43.26.1.27-.04.49-.35.71-.19.13-.88.56-1.03.7-.16.15-.14.26-.12.41.01.12.36,1.74,2.53,2.79.12.06.34.19-.04.4Z" fill="#ffffff"/>
</svg>