<svg xmlns="http://www.w3.org/2000/svg" width="14" height="14" viewBox="0 0 14 14">
	<path d="M7,0C3.13,0,0,3.13,0,7s3.13,7,7,7,7-3.13,7-7S10.87,0,7,0ZM10.34,4.55c-.02.28-.18,1.27-.34,2.35-.24,1.52-.51,3.18-.51,3.18,0,0-.04.47-.38.55-.34.08-1.01-.36-1.01-.36,0,0-1.52-.97-2.04-1.42-.14-.12-.3-.36.02-.65.73-.67,1.6-1.5,2.12-2.02.24-.24.49-.81-.53-.12-1.44.99-2.85,1.92-2.85,1.92,0,0-.32.2-.93.02s-1.32-.42-1.32-.42c0,0-.49-.3.34-.63,0,0,3.5-1.44,4.71-1.94.47-.2,2.04-.85,2.04-.85,0,0,.73-.28.67.4Z" fill="#34aadf"/>
</svg>