<svg xmlns="http://www.w3.org/2000/svg" width="14" height="14" viewBox="0 0 14 14">
  <path d="M10.3,6.5c0,0-.1,0-.2,0-.1-2-1.2-3.1-3-3.1h0c-1.1,0-2,.5-2.6,1.3l1,.7c.4-.6,1.1-.8,1.6-.8h0c.6,0,1.1.2,1.3.5.2.2.4.6.4,1-.5,0-1.1-.1-1.7,0-1.7,0-2.8,1.1-2.8,2.5,0,.7.4,1.3,1,1.7.5.3,1.2.5,1.9.5.9,0,1.6-.4,2.1-1,.4-.5.6-1.1.7-1.9.4.3.8.6.9,1,.3.7.3,1.9-.6,2.8-.8.8-1.8,1.2-3.3,1.2-1.7,0-2.9-.6-3.7-1.6-.8-1-1.2-2.4-1.2-4.2,0-1.8.4-3.2,1.2-4.2.8-1,2.1-1.6,3.7-1.6,1.7,0,2.9.6,3.8,1.6.4.5.7,1.2.9,1.9l1.2-.3c-.2-.9-.6-1.7-1.2-2.4C10.7.7,9.2,0,7.1,0h0c-2.1,0-3.6.7-4.7,2-.9,1.2-1.4,2.9-1.4,5h0c0,2.1.5,3.8,1.4,4.9,1.1,1.3,2.6,2,4.7,2.1h0c1.8,0,3.1-.5,4.2-1.5,1.4-1.4,1.3-3.1.9-4.2-.3-.8-.9-1.4-1.8-1.8ZM7.2,9.4c-.8,0-1.5-.3-1.6-1,0-.5.4-1.2,1.6-1.2.1,0,.3,0,.4,0,.4,0,.9,0,1.3.1-.1,1.8-1,2.1-1.7,2.1Z" fill="#000000"/>
</svg>