<svg xmlns="http://www.w3.org/2000/svg" width="14.17" height="16" viewBox="0 0 14.17 16">
	<path d="M11.48,3.14s-.02-.01-.03-.02c-.87-.54-1.5-1.43-1.68-2.48-.02-.1-.03-.2-.04-.3v-.34h-2.65v10.5c0,1.22-1,2.22-2.22,2.22-.35,0-.69-.09-.98-.23-.01,0-.01-.01-.02-.01-.73-.37-1.23-1.12-1.23-1.99s.47-1.57,1.17-1.95c.11-.06.22-.11.34-.15.09-.03.18-.06.27-.07.06-.02.12-.03.19-.03.09,0,.17-.02.26-.02.11,0,.23.01.34.03.11.01.22.04.33.07v-2.68c-.22-.03-.44-.05-.67-.05C2.18,5.64,0,7.82,0,10.5c0,1.68.86,3.17,2.16,4.04.01.01.03.02.04.03.76.5,1.68.79,2.67.79,1.34,0,2.55-.54,3.43-1.42.11-.11.22-.23.32-.35.1-.12.2-.24.28-.37.17-.26.33-.54.45-.83.24-.58.38-1.22.38-1.89v-5.36c1.03.73,2.3,1.17,3.66,1.17v-2.63c-.68,0-1.34-.18-1.91-.54Z" fill="#00f2ea"/>
	<path d="M13.39,4.23c-.41-.08-.8-.24-1.16-.47-.28-.17-.53-.38-.75-.62-.48-.51-.81-1.15-.93-1.86-.02-.1-.03-.2-.04-.3v-.34h-2.65v10.5c0,1.22-1,2.22-2.22,2.22-.36,0-.7-.09-1-.24-.3-.15-.56-.37-.76-.63-.3-.38-.47-.85-.47-1.36,0-.84.47-1.57,1.17-1.95.11-.06.22-.11.34-.15.09-.03.18-.06.27-.07.06-.02.12-.03.19-.03.09-.01.17-.02.26-.02.11,0,.23.01.34.03.11.01.22.04.33.07v-2.68c-.22-.03-.44-.05-.67-.05h-.11c-2.63.06-4.75,2.22-4.75,4.86,0,1.34.54,2.55,1.42,3.43.22.22.47.43.74.61.77.52,1.7.82,2.71.82,1.34,0,2.55-.54,3.43-1.42.11-.11.22-.23.32-.35.1-.12.2-.24.28-.37.17-.26.33-.54.45-.83.24-.58.38-1.22.38-1.89v-5.36c1.03.73,2.3,1.17,3.66,1.17v-2.63c-.27,0-.53-.03-.78-.09Z" fill="#ff004f"/>
	<path d="M13.39,4.23v2.08c-1.36,0-2.63-.44-3.66-1.17v5.36c0,.67-.14,1.31-.38,1.89-.12.29-.28.57-.45.83-.08.13-.18.25-.28.37-.1.12-.21.24-.32.35-.88.88-2.09,1.42-3.43,1.42-.99,0-1.91-.29-2.67-.79-.88-.88-1.42-2.09-1.42-3.43,0-2.64,2.12-4.8,4.75-4.86v2.09c-.11-.03-.22-.06-.33-.07-.11-.02-.23-.03-.34-.03-.09,0-.17.01-.26.02-.07,0-.13.01-.19.03-.09.01-.18.04-.27.07-.12.04-.23.09-.34.15-.7.38-1.17,1.11-1.17,1.95s.5,1.62,1.23,1.99c.01,0,.01.01.02.01.2.26.46.48.76.63.3.15.64.24,1,.24,1.22,0,2.22-1,2.22-2.22V.64h1.91c.18,1.05.81,1.94,1.68,2.48.01.01.02.01.03.02.22.24.47.45.75.62.36.23.75.39,1.16.47Z" fill="#000000"/>
</svg>