<svg xmlns="http://www.w3.org/2000/svg" width="16.264" height="14" viewBox="0 0 16.264 14">
	<path d="M16.256 3.242q-.109 2.364-3.317 6.472Q9.625 14 7.325 14q-1.422 0-2.405-2.613L3.608 6.596q-.729-2.612-1.567-2.613a5.018 5.018 0 0 0-1.276.763l-.766-.981q1.2-1.053 2.374-2.106A5.385 5.385 0 0 1 4.783.206q1.9-.182 2.337 2.583.474 2.982.657 3.71.548 2.475 1.2 2.474.511 0 1.533-1.606a6.32 6.32 0 0 0 1.1-2.444q.146-1.386-1.1-1.387a3.046 3.046 0 0 0-1.2.266q1.2-3.908 4.581-3.8 2.506.073 2.363 3.236Z" fill="#17d5ff"/>
</svg>