<svg xmlns="http://www.w3.org/2000/svg" width="14" height="14" viewBox="0 0 14 14">
	<path d="M11.83,1.96C10.55.71,8.83.01,7.04,0h-.03c-1.2,0-2.39.31-3.44.91-1.05.6-1.92,1.45-2.54,2.49C.42,4.43.08,5.61.06,6.82c-.02,1.2.27,2.39.85,3.45l-.61,3.67s0,.02,0,.02c0,0,0,.01.01.02,0,0,.01.01.02.01,0,0,.01,0,.02,0h.01l3.63-.81c.94.45,1.97.68,3.01.68h.2c.92-.03,1.82-.23,2.65-.61.84-.38,1.59-.91,2.21-1.58.63-.67,1.11-1.45,1.43-2.31.32-.86.47-1.77.43-2.69-.07-1.79-.82-3.48-2.1-4.73ZM11.14,10.9c-1.04,1.09-2.46,1.72-3.97,1.77h0c-.05,0-.11,0-.16,0-.92,0-1.83-.22-2.64-.64l-.19-.1-2.46.58.45-2.49-.11-.18c-.5-.86-.78-1.84-.79-2.83-.01-1,.24-1.98.72-2.85.48-.87,1.18-1.6,2.04-2.12.85-.52,1.82-.81,2.82-.83h.17c1.5,0,2.95.6,4.01,1.66,1.07,1.06,1.68,2.49,1.7,4,.02,1.5-.55,2.96-1.59,4.04Z" fill="#25d366"/>
	<path d="M10.1,8.44c-.17-.09-1.01-.54-1.17-.6-.06-.03-.12-.04-.19-.05-.04,0-.08.01-.12.04-.04.02-.07.05-.09.09-.14.18-.46.56-.57.67-.02.03-.05.05-.09.06-.03.02-.07.02-.1.02-.07,0-.13-.02-.19-.05-.51-.22-.98-.53-1.37-.91-.37-.36-.68-.78-.93-1.24-.1-.18,0-.27.09-.35.09-.08.18-.2.27-.3.07-.08.14-.18.18-.28.02-.05.04-.1.04-.15,0-.05-.01-.11-.04-.15-.04-.09-.35-.96-.5-1.31-.12-.3-.26-.31-.38-.32-.1,0-.22-.01-.33-.01h-.01c-.09,0-.17.02-.25.06s-.15.09-.21.15c-.17.17-.63.58-.65,1.43-.03.86.57,1.7.66,1.82.08.12,1.14,1.97,2.89,2.72,1.03.44,1.48.52,1.77.52.12,0,.21-.01.31-.02.32-.02,1.04-.39,1.2-.79.16-.4.17-.75.13-.82-.04-.07-.16-.12-.33-.21Z" fill="#25d366"/>
</svg>